nColumns=19
nRows=114
DataType=double
version=3
OpenSimVersion=4.1
endheader
time	ground_force_1_vx	ground_force_1_vy	ground_force_1_vz	ground_force_1_px	ground_force_1_py	ground_force_1_pz	ground_force_1_mx	ground_force_1_my	ground_force_1_mz	ground_force_2_vx	ground_force_2_vy	ground_force_2_vz	ground_force_2_px	ground_force_2_py	ground_force_2_pz	ground_force_2_mx	ground_force_2_my	ground_force_2_mz
0	0	0	0	0.162578	0	-0.16099	0	0	0	0	0	0	0.762749	0	-0.327233	0	0	0
0.01	0	0	0	0.162578	0	-0.16099	0	0	0	0	0	0	0.762749	0	-0.327233	0	0	0
0.02	-0.117287	53.0063	2.77809	0.160885	0.0057	-0.160272	0	0.21571	0	0	0	0	0.762749	0	-0.327233	0	0	0
0.03	-5.96725	152.128	1.96123	0.160457	0.006	-0.157192	0	0.350433	0	0	0	0	0.762749	0	-0.327233	0	0	0
0.04	-26.8067	253.594	-3.15406	0.163857	0.006	-0.154363	0	0.356043	0	0	0	0	0.762749	0	-0.327233	0	0	0
0.05	-53.4082	334.819	-5.9851	0.168197	0.006	-0.15322	0	0.328005	0	0	0	0	0.762749	0	-0.327233	0	0	0
0.06	-76.9154	391.341	-4.81515	0.172776	0.006	-0.153047	0	0.694471	0	0	0	0	0.762749	0	-0.327233	0	0	0
0.07	-94.1257	436.23	-4.10525	0.178186	0.006	-0.152895	0	1.35803	0	0	0	0	0.762749	0	-0.327233	0	0	0
0.08	-109.218	479.475	-6.23761	0.184557	0.006	-0.152718	0	1.65293	0	0	0	0	0.762749	0	-0.327233	0	0	0
0.09	-125.887	521.455	-13.0593	0.191589	0.006	-0.152454	0	1.37216	0	0	0	0	0.762749	0	-0.327233	0	0	0
0.1	-141.089	563.255	-24.0528	0.198645	0.006	-0.152073	0	0.993486	0	0	0	0	0.762749	0	-0.327233	0	0	0
0.11	-152.784	601.38	-35.3411	0.204891	0.006	-0.151677	0	0.886341	0	0	0	0	0.762749	0	-0.327233	0	0	0
0.12	-160.998	634.072	-44.7435	0.210004	0.006	-0.151501	0	0.984024	0	0	0	0	0.762749	0	-0.327233	0	0	0
0.13	-165.804	662.837	-51.7985	0.213919	0.006	-0.151586	0	1.16787	0	0	0	0	0.762749	0	-0.327233	0	0	0
0.14	-167.129	689.767	-56.0051	0.2168	0.006	-0.151805	0	1.46522	0	0	0	0	0.762749	0	-0.327233	0	0	0
0.15	-164.416	713.337	-57.4642	0.218807	0.006	-0.152166	0	1.83257	0	0	0	0	0.762749	0	-0.327233	0	0	0
0.16	-158.087	728.778	-57.5936	0.22003	0.006	-0.152496	0	2.12981	0	0	0	0	0.762749	0	-0.327233	0	0	0
0.17	-149.246	733.763	-57.7387	0.220701	0.006	-0.152681	0	2.28749	0	0	0	0	0.762749	0	-0.327233	0	0	0
0.18	-138.784	727.592	-57.7834	0.220974	0.006	-0.152647	0	2.36379	0	0	0	0	0.762749	0	-0.327233	0	0	0
0.19	-127.626	711.239	-57.4279	0.221063	0.006	-0.152476	0	2.35339	0	0	0	0	0.762749	0	-0.327233	0	0	0
0.2	-116.452	687.895	-56.6292	0.220908	0.006	-0.152249	0	2.27143	0	0	0	0	0.762749	0	-0.327233	0	0	0
0.21	-105.432	661.604	-55.2199	0.220628	0.006	-0.151997	0	2.1797	0	0	0	0	0.762749	0	-0.327233	0	0	0
0.22	-94.8412	634.181	-53.2358	0.220198	0.006	-0.151734	0	2.04462	0	0	0	0	0.762749	0	-0.327233	0	0	0
0.23	-84.3892	606.371	-50.9708	0.219595	0.006	-0.15147	0	1.88819	0	0	0	0	0.762749	0	-0.327233	0	0	0
0.24	-73.8828	580.687	-48.6812	0.219126	0.006	-0.151265	0	1.74502	0	0	0	0	0.762749	0	-0.327233	0	0	0
0.25	-64.0184	557.911	-46.1994	0.219034	0.006	-0.151183	0	1.6076	0	0	0	0	0.762749	0	-0.327233	0	0	0
0.26	-54.769	536.578	-43.2817	0.219201	0.006	-0.151218	0	1.44175	0	0	0	0	0.762749	0	-0.327233	0	0	0
0.27	-45.7789	515.754	-40.1077	0.219285	0.006	-0.151323	0	1.25646	0	0	0	0	0.762749	0	-0.327233	0	0	0
0.28	-37.3454	495.413	-37.1964	0.21926	0.006	-0.151441	0	1.01226	0	0	0	0	0.762749	0	-0.327233	0	0	0
0.29	-29.7721	476.099	-34.7255	0.219355	0.006	-0.151473	0	0.685915	0	0	0	0	0.762749	0	-0.327233	0	0	0
0.3	-23.0524	458.765	-32.6438	0.219739	0.006	-0.151527	0	0.370585	0	0	0	0	0.762749	0	-0.327233	0	0	0
0.31	-17.2473	444.033	-30.9304	0.220392	0.006	-0.151737	0	0.0781537	0	0	0	0	0.762749	0	-0.327233	0	0	0
0.32	-12.7113	433.671	-29.3587	0.221449	0.006	-0.152064	0	-0.253732	0	0	0	0	0.762749	0	-0.327233	0	0	0
0.33	-9.02568	428.742	-27.7335	0.222779	0.006	-0.152559	0	-0.620508	0	0	0	0	0.762749	0	-0.327233	0	0	0
0.34	-5.3462	429.2	-26.8034	0.224363	0.006	-0.153116	0	-1.00178	0	0	0	0	0.762749	0	-0.327233	0	0	0
0.35	-2.46197	434.365	-26.5353	0.226214	0.006	-0.153574	0	-1.36682	0	0	0	0	0.762749	0	-0.327233	0	0	0
0.36	-0.537272	443.836	-26.0994	0.228463	0.006	-0.154035	0	-1.61017	0	0	0	0	0.762749	0	-0.327233	0	0	0
0.37	0.930585	455.849	-25.6088	0.230863	0.006	-0.154515	0	-1.76215	0	0	0	0	0.762749	0	-0.327233	0	0	0
0.38	1.98459	469.357	-26.0921	0.233332	0.006	-0.154848	0	-1.97605	0	0	0	0	0.762749	0	-0.327233	0	0	0
0.39	3.07946	483.703	-28.4865	0.235885	0.006	-0.155018	0	-2.3021	0	0	0	0	0.762749	0	-0.327233	0	0	0
0.4	4.51676	498.161	-32.128	0.238506	0.006	-0.155294	0	-2.70048	0	0	0	0	0.762749	0	-0.327233	0	0	0
0.41	6.83956	512.199	-35.4603	0.241165	0.006	-0.155823	0	-3.1046	0	0	0	0	0.762749	0	-0.327233	0	0	0
0.42	9.8845	527.954	-38.0707	0.244061	0.006	-0.156594	0	-3.60385	0	0	0	0	0.762749	0	-0.327233	0	0	0
0.43	13.1251	546.178	-39.4044	0.247311	0.006	-0.157676	0	-4.17898	0	0	0	0	0.762749	0	-0.327233	0	0	0
0.44	17.3006	566.214	-39.437	0.251046	0.006	-0.159058	0	-4.73619	0	0	0	0	0.762749	0	-0.327233	0	0	0
0.45	21.2144	586.947	-39.1495	0.255651	0.006	-0.160678	0	-5.2602	0	0	0	0	0.762749	0	-0.327233	0	0	0
0.46	23.9082	604.698	-38.3916	0.26099	0.006	-0.162485	0	-5.71503	0	0	0	0	0.762749	0	-0.327233	0	0	0
0.47	26.4774	618.532	-37.2308	0.266837	0.006	-0.164373	0	-6.07764	0	0	0	0	0.762749	0	-0.327233	0	0	0
0.48	30.618	628.925	-37.5585	0.272905	0.006	-0.165985	0	-6.35453	0	0	0	0	0.762749	0	-0.327233	0	0	0
0.49	35.85	637.647	-38.9073	0.279213	0.006	-0.167332	0	-6.44865	0	0	0	0	0.762749	0	-0.327233	0	0	0
0.5	40.2306	645.424	-39.879	0.285941	0.006	-0.168691	0	-6.44965	0	0	0	0	0.762749	0	-0.327233	0	0	0
0.51	42.8718	652.023	-41.1252	0.293309	0.006	-0.170219	0	-6.34385	0	0	0	0	0.762749	0	-0.327233	0	0	0
0.52	44.0162	657.943	-42.4621	0.301142	0.006	-0.171946	0	-6.07121	0	0	0	0	0.762749	0	-0.327233	0	0	0
0.53	45.8429	665.779	-41.1698	0.308721	0.006	-0.173861	0	-5.86163	0	0	0	0	0.762749	0	-0.327233	0	0	0
0.54	51.3797	676.185	-37.3636	0.315178	0.006	-0.175813	0	-5.82025	0	0	0	0	0.762749	0	-0.327233	0	0	0
0.55	59.3697	684.887	-34.1923	0.320994	0.006	-0.177502	0	-5.72905	0	0	0	0	0.762749	0	-0.327233	0	0	0
0.56	67.8833	689.078	-31.5531	0.326947	0.006	-0.178995	0	-5.51928	0	0	0	0	0.762749	0	-0.327233	0	0	0
0.57	76.1411	688.962	-28.9547	0.332885	0.006	-0.180359	0	-5.24926	0	0	0	0	0.762749	0	-0.327233	0	0	0
0.58	84.5815	685.177	-26.1632	0.338498	0.006	-0.181641	0	-4.95472	0	2.405	22.0175	-2.3691	0.765254	0.0036	-0.330156	0	0.572466	0
0.59	93.3406	678.471	-22.4867	0.34365	0.006	-0.182854	0	-4.69925	0	10.4798	88.5097	-2.45499	0.777547	0.006	-0.343873	0	1.04212	0
0.6	102.233	667.537	-17.9142	0.34799	0.006	-0.183715	0	-4.43297	0	8.31439	142.225	-1.90917	0.782749	0.006	-0.348009	0	1.00128	0
0.61	110.565	650.534	-13.3421	0.351541	0.006	-0.183983	0	-4.04992	0	-0.616998	177.108	-4.02717	0.786101	0.006	-0.349112	0	0.702684	0
0.62	118.203	625.622	-9.41219	0.354548	0.006	-0.183583	0	-3.46779	0	-8.99718	209.871	-7.01949	0.792147	0.006	-0.348641	0	0.162119	0
0.63	125.201	590.567	-5.59133	0.357274	0.006	-0.182747	0	-2.81276	0	-23.452	260.164	-10.0915	0.807392	0.006	-0.346061	0	-0.224312	0
0.64	129.498	543.941	-1.64562	0.360054	0.006	-0.181481	0	-2.16864	0	-48.4042	326.424	-10.1002	0.825352	0.006	-0.342992	0	-0.00110145	0
0.65	128.408	484.128	1.30728	0.363352	0.006	-0.17966	0	-1.51246	0	-65.613	377.674	-5.24243	0.835889	0.006	-0.341648	0	0.482045	0
0.66	120.729	413.701	2.27122	0.367872	0.006	-0.177753	0	-0.817256	0	-67.7043	400.873	-0.69403	0.84147	0.006	-0.341337	0	0.423201	0
0.67	107.88	337.979	1.73915	0.374044	0.006	-0.176227	0	-0.25623	0	-68.1123	410.7	0.657671	0.846344	0.006	-0.34101	0	-0.211983	0
0.68	90.0072	264.11	0.821558	0.38152	0.006	-0.175306	0	0.0313443	0	-71.6206	427.33	4.54338	0.850787	0.006	-0.341123	0	-0.662067	0
0.69	70.2509	195.561	0.148125	0.389229	0.006	-0.175086	0	0.157404	0	-77.9025	458.622	14.9872	0.855231	0.006	-0.342186	0	-0.72228	0
0.7	50.5269	133.938	0.272335	0.39755	0.006	-0.175816	0	0.113356	0	-86.8294	499.027	27.049	0.860288	0.006	-0.343317	0	-0.827368	0
0.71	30.5105	85.6614	0.781079	0.407689	0.006	-0.17791	0	0.0631539	0	-95.0855	541.319	36.0026	0.865301	0.006	-0.343973	0	-1.07499	0
0.72	13.4838	52.4402	0.895649	0.419475	0.006	-0.181267	0	0.0360193	0	-100.892	584.568	43.1623	0.869731	0.006	-0.344304	0	-1.22891	0
0.73	2.4067	30.3582	0.765045	0.431614	0.006	-0.184125	0	0.0537923	0	-100.731	624.286	49.2893	0.873022	0.006	-0.34462	0	-1.27848	0
0.74	-0.17388	2.09238	0.0558424	0.45167	0.0006	-0.184522	0	0.00556075	0	-95.9453	654.169	53.4477	0.875496	0.006	-0.344875	0	-1.21066	0
0.75	0	0	0	0.478938	0	-0.18394	0	0	0	-89.4754	670.75	55.9566	0.877808	0.006	-0.345183	0	-1.07221	0
0.76	0	0	0	0.506206	0	-0.183359	0	0	0	-83.6576	675.71	58.1098	0.880542	0.006	-0.345464	0	-0.951771	0
0.77	0	0	0	0.533474	0	-0.182777	0	0	0	-79.119	672.77	59.7771	0.883857	0.006	-0.345744	0	-0.887386	0
0.78	0	0	0	0.560742	0	-0.182196	0	0	0	-75.2043	665.516	60.3447	0.887585	0.006	-0.345979	0	-0.815883	0
0.79	0	0	0	0.58801	0	-0.181615	0	0	0	-71.2329	655.406	59.5209	0.891565	0.006	-0.345997	0	-0.76361	0
0.8	0	0	0	0.615278	0	-0.181033	0	0	0	-67.1167	641.676	57.3524	0.895681	0.006	-0.34603	0	-0.665781	0
0.81	0	0	0	0.642545	0	-0.180452	0	0	0	-62.2736	624.696	54.2939	0.899735	0.006	-0.34593	0	-0.494782	0
0.82	0	0	0	0.669813	0	-0.17987	0	0	0	-56.6327	605.551	50.8569	0.903702	0.006	-0.345783	0	-0.33906	0
0.83	0	0	0	0.697081	0	-0.179289	0	0	0	-50.9045	583.693	47.2536	0.907755	0.006	-0.345574	0	-0.217224	0
0.84	0	0	0	0.724349	0	-0.178707	0	0	0	-45.5198	558.33	43.8752	0.91193	0.006	-0.345319	0	-0.0711353	0
0.85	0	0	0	0.751617	0	-0.178126	0	0	0	-40.8238	531.831	40.7483	0.916193	0.006	-0.345186	0	0.130176	0
0.86	0	0	0	0.778885	0	-0.177545	0	0	0	-37.0583	507.822	38.0988	0.92044	0.006	-0.345078	0	0.349514	0
0.87	0	0	0	0.806153	0	-0.176963	0	0	0	-33.9869	488.664	36.2964	0.924275	0.006	-0.345011	0	0.5398	0
0.88	0	0	0	0.833421	0	-0.176382	0	0	0	-31.2275	474.985	35.3779	0.927669	0.006	-0.344936	0	0.671182	0
0.89	0	0	0	0.860688	0	-0.1758	0	0	0	-28.6593	465.642	34.9266	0.930748	0.006	-0.344776	0	0.756296	0
0.9	0	0	0	0.887956	0	-0.175219	0	0	0	-26.4326	458.514	34.0313	0.933585	0.006	-0.344411	0	0.825863	0
0.91	0	0	0	0.915224	0	-0.174638	0	0	0	-24.3021	452.593	32.7795	0.936299	0.006	-0.343877	0	0.933167	0
0.92	0	0	0	0.942492	0	-0.174056	0	0	0	-22.0273	448.125	31.4954	0.93887	0.006	-0.343396	0	1.09121	0
0.93	0	0	0	0.96976	0	-0.173475	0	0	0	-19.4119	445.819	30.2359	0.941184	0.006	-0.342713	0	1.23156	0
0.94	0	0	0	0.997028	0	-0.172893	0	0	0	-16.5783	446.843	29.1313	0.943274	0.006	-0.341772	0	1.3913	0
0.95	0	0	0	1.0243	0	-0.172312	0	0	0	-13.7068	451.647	28.4113	0.945232	0.006	-0.340834	0	1.62643	0
0.96	0	0	0	1.05156	0	-0.171731	0	0	0	-10.8506	459.661	28.5543	0.947021	0.006	-0.339867	0	1.91883	0
0.97	0	0	0	1.07883	0	-0.171149	0	0	0	-7.9799	469.732	29.6244	0.948659	0.006	-0.338704	0	2.18836	0
0.98	0	0	0	1.1061	0	-0.170568	0	0	0	-4.89838	480.92	31.0957	0.950375	0.006	-0.337436	0	2.42936	0
0.99	0	0	0	1.13337	0	-0.169986	0	0	0	-1.62793	493.357	32.6083	0.952248	0.006	-0.335925	0	2.70737	0
1	0	0	0	1.16064	0	-0.169405	0	0	0	2.00123	507.578	33.8185	0.954228	0.006	-0.334077	0	3.03923	0
1.01	0	0	0	1.1879	0	-0.168823	0	0	0	6.28305	524.338	34.5898	0.956028	0.006	-0.3322	0	3.40801	0
1.02	0	0	0	1.21517	0	-0.168242	0	0	0	11.589	545.249	34.5343	0.957637	0.006	-0.330385	0	3.80569	0
1.03	0	0	0	1.24244	0	-0.167661	0	0	0	18.7342	570.111	34.3101	0.959136	0.006	-0.328754	0	4.17621	0
1.04	0	0	0	1.26971	0	-0.167079	0	0	0	27.3958	594.942	35.0172	0.960632	0.006	-0.327681	0	4.485	0
1.05	0	0	0	1.29697	0	-0.166498	0	0	0	36.6657	618.024	36.5049	0.962185	0.006	-0.327012	0	4.73489	0
1.06	0	0	0	1.32424	0	-0.165916	0	0	0	46.6435	639.149	38.893	0.963811	0.006	-0.326334	0	4.91113	0
1.07	0	0	0	1.35151	0	-0.165335	0	0	0	57.2533	657.247	41.7004	0.965561	0.006	-0.325601	0	5.04493	0
1.08	0	0	0	1.37878	0	-0.164753	0	0	0	68.8454	671.66	44.0301	0.967368	0.006	-0.324817	0	5.18322	0
1.09	0	0	0	1.40605	0	-0.164172	0	0	0	81.2037	683.006	45.5812	0.969152	0.006	-0.324065	0	5.3328	0
1.1	0	0	0	1.43331	0	-0.163591	0	0	0	93.3767	690.845	46.6133	0.971037	0.006	-0.323265	0	5.45099	0
1.11	0	0	0	1.46058	0	-0.163009	0	0	0	104.685	693.929	47.1734	0.973088	0.006	-0.322427	0	5.46114	0
1.12	0	0	0	1.48785	0	-0.162428	0	0	0	114.862	691.974	46.7716	0.975319	0.006	-0.321396	0	5.42746	0
1.13	-2.29856	25.4198	0.472131	1.50481	0.0039	-0.161276	0	-0.0264014	0	124.08	684.83	44.7593	0.977585	0.006	-0.320325	0	5.42516	0
